<?xml version="1.0" standalone="no"?>
<!DOCTYPE svg PUBLIC "-//W3C//DTD SVG 20010904//EN"
 "http://www.w3.org/TR/2001/REC-SVG-20010904/DTD/svg10.dtd">
<svg version="1.0" xmlns="http://www.w3.org/2000/svg"
 width="482.000000pt" height="1280.000000pt" viewBox="0 0 482.000000 1280.000000"
 preserveAspectRatio="xMidYMid meet">
<metadata>
Created by potrace 1.15, written by Peter Selinger 2001-2017
</metadata>
<g transform="translate(0.000000,1280.000000) scale(0.100000,-0.100000)"
fill="#000000" stroke="none">
<path d="M3004 12391 c-101 -25 -230 -143 -322 -297 -28 -47 -53 -91 -56 -97
-4 -9 -8 -8 -12 1 -17 38 -68 82 -93 82 -33 0 -54 -21 -76 -77 -33 -82 5 -126
90 -106 25 6 45 7 45 3 0 -9 -59 -152 -65 -158 -2 -2 -18 12 -35 32 -58 65
-107 58 -134 -21 -20 -59 -20 -87 0 -107 17 -18 70 -21 108 -6 20 7 26 6 26
-3 0 -13 -40 -138 -46 -146 -2 -2 -22 13 -44 33 -62 56 -109 46 -129 -29 -29
-108 10 -147 112 -110 27 9 37 10 34 2 -2 -7 -12 -43 -22 -82 -10 -38 -20 -72
-22 -74 -2 -3 -18 9 -36 26 -43 41 -68 52 -92 43 -30 -11 -42 -29 -53 -84 -19
-90 18 -122 105 -93 26 9 49 15 50 13 6 -5 -31 -166 -38 -166 -3 0 -23 16 -43
35 -67 63 -111 44 -137 -57 -10 -42 -9 -51 6 -74 16 -24 21 -26 67 -21 28 4
56 12 64 18 8 7 17 9 20 6 8 -8 -17 -147 -28 -154 -6 -3 -22 6 -36 20 -64 59
-113 54 -132 -12 -34 -122 18 -171 123 -117 26 14 27 14 27 -12 -1 -15 -5 -46
-9 -70 l-9 -44 75 -86 75 -87 -6 -505 c-4 -278 -11 -809 -16 -1180 -16 -1067
-30 -2540 -30 -3087 l0 -502 -82 -28 c-73 -24 -99 -27 -208 -27 -138 0 -186
13 -279 76 -146 101 -241 257 -346 570 -30 90 -67 181 -83 203 -37 53 -86 85
-132 85 -103 0 -258 -180 -304 -355 -23 -86 -31 -270 -17 -400 33 -298 107
-604 259 -1060 l86 -260 0 -120 c-1 -266 -99 -574 -364 -1140 -199 -425 -265
-613 -311 -875 -21 -119 -16 -358 10 -455 64 -242 211 -404 511 -563 526 -278
1345 -370 2202 -246 355 51 705 200 902 384 143 134 280 357 312 510 20 92 14
328 -11 490 -26 167 -126 453 -280 800 -77 173 -162 413 -190 534 -21 89 -34
334 -24 441 9 102 62 266 160 498 101 238 133 412 111 615 -20 195 -100 413
-165 453 -42 25 -62 24 -112 -6 -58 -33 -130 -125 -287 -365 -151 -231 -219
-304 -317 -340 -114 -43 -235 -20 -342 64 l-57 44 -6 244 c-8 324 -14 645 -26
1283 -5 292 -12 620 -15 730 -3 110 -19 944 -37 1853 -30 1598 -31 1656 -14
1729 40 167 145 316 261 369 49 23 55 29 55 55 0 17 -29 175 -64 352 -73 363
-90 483 -85 590 6 99 13 107 106 107 122 0 188 51 214 165 31 138 -69 297
-214 340 -54 16 -75 17 -123 6z"/>
</g>
</svg>
